# xmcd
# Copyright (C) 1995-1998 Ti Kan
#
# Track frame offsets:
#       150
#       17025
#       33450
#       58650
#       73597
#       91625
#       110150
#       124200
#       141472
#       156900
#
# Disc length: 2647 seconds
#
# Revision: 2
# Processed by: cddbd v1.4PL0 Copyright (c) Steve Scherf et al.
# Submitted via: CD-Transfer v1.0
#
DISCID=8d0a550a
DTITLE=Poker Alice - One Step Closer To Paradise
DYEAR=2001
DGENRE=
TTITLE0=The Rainbow
TTITLE1=Weird
TTITLE2=Forever
TTITLE3=Wake Me Up
TTITLE4=Southbound
TTITLE5=I Miss You
TTITLE6=Where I Want To Go
TTITLE7=Wish You Were Here
TTITLE8=Misery
TTITLE9=Louisiana
EXTD=
EXTT0=
EXTT1=
EXTT2=
EXTT3=
EXTT4=
EXTT5=
EXTT6=
EXTT7=
EXTT8=
EXTT9=
PLAYORDER=
